<svg xmlns="http://www.w3.org/2000/svg" viewBox="0 0 229.91 229.91"><defs><style>.cls-1{fill:#ffc655;}.cls-2{fill:none;stroke:#fff;stroke-miterlimit:10;stroke-width:4.06px;}.cls-3{fill:#fff;}</style></defs><g id="Layer_2" data-name="Layer 2"><g id="Layer_1-2" data-name="Layer 1"><circle class="cls-1" cx="114.95" cy="114.95" r="114.95"/><circle class="cls-2" cx="114.8" cy="116.19" r="107.73"/><path class="cls-3" d="M190.52,157.05V173.7a2.18,2.18,0,0,1-2.08.84q-21.45,0-42.91,0c-1.63,0-2.24-.36-2.24-2.27q0-19.42-.11-38.84c0-5.28,0-10.57-.07-15.85-.06-4.35-.22-8.71-.36-13.06a56.75,56.75,0,0,0-1.25-9.81A13.32,13.32,0,0,0,134,85a15.52,15.52,0,0,0-11.11-.84,13.8,13.8,0,0,0-9.59,8.17,21.65,21.65,0,0,0-1.81,8.76c0,2.54.12,5.08.12,7.62q0,13.83-.12,27.64c0,5.22-.18,10.43-.2,15.65,0,4.85.07,9.7.09,14.56,0,2-.11,4-.09,5.94a2.06,2.06,0,0,1-1.43,2.22H92.61a2,2,0,0,1-1.24-2.24,4.13,4.13,0,0,0,0-.5q-.06-24.51-.13-49c0-2.24,0-4.49,0-6.73,0-3-.13-6.07-.18-9.11A71.91,71.91,0,0,0,89.78,95.2c-1.07-5.72-4.29-9.63-9.94-11.32a16.07,16.07,0,0,0-9.93.36A13.59,13.59,0,0,0,61.2,92.7a30.22,30.22,0,0,0-1.66,6.71c-.29,2.22-.52,4.45-.66,6.69-.17,2.7-.24,5.4-.3,8.1,0,1.12.1,2.24.13,3.36a11,11,0,0,1-.09,1.27A4.39,4.39,0,0,1,58,119c-.37,0-.73,0-1.09,0-2.71,0-5.41-.11-8.12-.11-2.51,0-5,.07-7.52.1-.45,0-.9-.07-1.32-.1-.13-.32-.23-.52-.3-.74a46.73,46.73,0,0,1-2-9c-.11-.94-.23-1.88-.35-2.82a45.2,45.2,0,0,1,1.58-14.59,43.8,43.8,0,0,1,6.3-13.47,41.15,41.15,0,0,1,3.69-4.4,34.13,34.13,0,0,1,14.61-9c.43-.13.86-.3,1.33-.46,0-.51.07-1,.07-1.42,0-7.07,0-14.13,0-21.2a2.48,2.48,0,0,1,1.56-2.68H81.71a2.26,2.26,0,0,1,1.55,2.48c0,.3,0,.6,0,.89V62.6c0,.45,0,.91.08,1.45A35.41,35.41,0,0,1,101,73.56l.62-.52c1.2-1,2.32-2.08,3.6-2.94,8.73-5.84,18.29-8.1,28.67-6.25A34.43,34.43,0,0,1,157,79a37.81,37.81,0,0,1,6.33,21c.12,5.48.14,11,.16,16.44,0,2.64-.08,5.28-.11,7.92q-.1,10.11-.2,20.21c0,3.47-.05,6.93-.07,10.4,0,.41.07.83.12,1.34h1.37q11.9,0,23.78,0A2.44,2.44,0,0,1,190.52,157.05Z"/><path class="cls-3" d="M50.42,175.12a12.37,12.37,0,0,1-12.07-9.83,12.52,12.52,0,0,1,2.54-11.17,11.55,11.55,0,0,1,7-3.92,12.8,12.8,0,0,1,9.5,1.74,12.4,12.4,0,0,1,2.49,18.8A12.84,12.84,0,0,1,52.1,175a5.59,5.59,0,0,1-.59.08Z"/></g></g></svg>